# xmcd
#
# Track frame offsets:
#	150
#	11608
#	25225
#	37325
#	51713
#	65775
#	78965
#	90598
#	101243
#	113730
#
# Disc length: 1678 seconds
#
# Revision: 1
# Processed by: cddbd v1.4PL0 Copyright (c) Steve Scherf et al.
# Submitted via: Gronk 1.4
#
DISCID=89068c0a
DTITLE=Mel McDaniel - Rock-A-Billy Boy
DYEAR=1900
DGENRE=country
TTITLE0=Walk That Way
TTITLE1=Reverend Luther And The Madam
TTITLE2=The Way You Do The Things You Do
TTITLE3=Country Heart
TTITLE4=The Tractor
TTITLE5=You Can't Play The Blues (In An Air-Conditioned Room
TTITLE6=Still Got You Baby
TTITLE7=Rock-A-Billy Boy
TTITLE8=Oklahoma Shine
TTITLE9=Blue Suede Blues
EXTD=
EXTT0=
EXTT1=
EXTT2=
EXTT3=
EXTT4=
EXTT5=
EXTT6=
EXTT7=
EXTT8=
EXTT9=
PLAYORDER=
